<svg xmlns="http://www.w3.org/2000/svg" width="94" height="129" viewBox="0 0 94 129" fill="none">
  <path d="M58.5576 52.6848C60.1077 52.6848 61.3642 54.2349 61.3642 55.4914V57.0441C61.3642 58.5941 60.1077 59.8507 58.5576 59.8507C57.0075 59.8507 55.751 58.3006 55.751 57.0441V55.4914C55.751 53.9413 57.0075 52.6848 58.5576 52.6848Z" fill="black"/>
  <path d="M62.8101 54.3576C62.4758 54.358 62.1619 54.1976 61.9663 53.9266C61.2262 53.1427 60.2415 52.6337 59.174 52.4823C58.107 52.331 57.0196 52.5469 56.0908 53.0941C55.6031 53.385 54.9726 53.2307 54.6738 52.7481C54.3746 52.2655 54.5177 51.6324 54.9951 51.3251C56.37 50.5012 57.9912 50.1882 59.5742 50.4405C61.1573 50.6933 62.6007 51.4955 63.6509 52.706C63.8802 53.0225 63.9132 53.441 63.7359 53.7891C63.5585 54.1373 63.2007 54.3571 62.8101 54.3576Z" fill="black"/>
  <path d="M53.7061 46.6245C54.712 46.1588 55.8003 45.8987 56.9082 45.8588C58.0112 45.7669 59.1204 45.7829 60.2204 45.9065C61.3226 46.0404 62.4108 46.2681 63.4744 46.5872C64.5649 46.9024 65.6007 47.3837 66.5451 48.0138C66.8438 48.2232 66.9379 48.6238 66.7627 48.9438C66.5875 49.2638 66.1999 49.4012 65.8626 49.2625L65.7867 49.2313C64.8831 48.8619 63.9496 48.5696 62.9965 48.3585C62.0244 48.1395 61.0363 48.0003 60.0412 47.9422C59.0444 47.9058 58.0476 47.888 57.0473 47.9496V47.9491C56.0344 48.0562 55.0147 48.0823 53.9973 48.0272H53.9609C53.6318 47.9947 53.3643 47.748 53.3049 47.4228C53.2459 47.0972 53.4094 46.772 53.706 46.6258L53.7061 46.6245Z" fill="black"/>
  <path d="M34.5644 59.8524C33.0143 59.8524 31.7578 58.3023 31.7578 57.0458V55.4931C31.7578 53.943 33.0143 52.6865 34.5644 52.6865C36.1145 52.6865 37.371 54.2366 37.371 55.4931V57.0458C37.371 58.5959 36.1145 59.8524 34.5644 59.8524Z" fill="black"/>
  <path d="M30.3101 54.3581C29.919 54.3577 29.5617 54.1378 29.3844 53.7897C29.207 53.4415 29.2395 53.0231 29.4693 52.7066C30.5195 51.496 31.9629 50.6943 33.546 50.4415C35.1286 50.1892 36.7497 50.5022 38.1251 51.3256C38.6025 51.633 38.7456 52.2661 38.4464 52.7486C38.1476 53.2312 37.5168 53.3856 37.0294 53.0946C36.1006 52.547 35.0132 52.3306 33.9457 52.482C32.8782 52.6333 31.8936 53.1428 31.1539 53.9272C30.9584 54.1982 30.6444 54.3585 30.3101 54.3581Z" fill="black"/>
  <path d="M39.1291 48.0298C38.1119 48.0844 37.0921 48.0584 36.0789 47.9518C35.0777 47.8902 34.0818 47.908 33.0849 47.9444H33.0854C32.0903 48.0025 31.1021 48.1417 30.13 48.3606C29.177 48.5718 28.2435 48.864 27.3399 49.2334L27.2627 49.2647H27.2631C26.9253 49.4034 26.5377 49.266 26.3625 48.946C26.1878 48.626 26.2815 48.2254 26.5802 48.0159C27.5246 47.3842 28.56 46.9012 29.6513 46.5843C30.7145 46.2656 31.8032 46.038 32.9049 45.9035C34.0071 45.78 35.1183 45.7639 36.2235 45.8558C37.3309 45.8957 38.4192 46.1563 39.4243 46.6216C39.7208 46.7677 39.8847 47.0924 39.8262 47.4176C39.7672 47.7433 39.5006 47.99 39.1715 48.0233L39.1291 48.0298Z" fill="black"/>
  <path d="M57.6248 50.1455C55.8288 50.1481 54.0802 50.7196 52.6299 51.7784C51.1796 52.8368 50.1017 54.3279 49.5519 56.0375C47.5812 55.6161 45.5438 55.6161 43.5736 56.0375C42.6956 53.3029 40.4925 51.1996 37.7207 50.4485C34.9487 49.6976 31.9852 50.4017 29.8471 52.3186C27.7091 54.2359 26.6871 57.1054 27.1324 59.9424C27.5777 62.7795 29.4295 65.198 32.0519 66.3683C34.6746 67.5381 37.7115 67.3005 40.1201 65.7365C42.5287 64.1726 43.9812 61.4952 43.9795 58.6235C43.9795 58.4414 43.9639 58.2623 43.9527 58.0824H43.9522C45.6722 57.7095 47.4521 57.7095 49.1721 58.0824C49.1596 58.2636 49.144 58.4423 49.144 58.6266C49.144 60.8756 50.0376 63.0331 51.628 64.6235C53.2184 66.2139 55.3755 67.1075 57.6249 67.1075C59.8743 67.1075 62.0314 66.2139 63.6218 64.6235C65.2122 63.0331 66.1058 60.8755 66.1058 58.6266C66.1058 56.3771 65.2122 54.22 63.6218 52.6296C62.0314 51.0393 59.8743 50.1456 57.6249 50.1456L57.6248 50.1455ZM35.4961 65.0248C33.7986 65.0248 32.171 64.3506 30.9707 63.1504C29.7705 61.9502 29.0963 60.3222 29.0963 58.625C29.0963 56.9275 29.771 55.2998 30.9712 54.0996C32.1714 52.8994 33.7994 52.2252 35.4969 52.2252C37.194 52.2256 38.8221 52.8998 40.0219 54.1005C41.222 55.3006 41.8963 56.9287 41.8959 58.6262C41.8941 60.3228 41.219 61.9493 40.0193 63.149C38.8196 64.3486 37.1928 65.0234 35.4961 65.0246V65.0248ZM57.6226 65.0248C55.9251 65.0248 54.2974 64.3506 53.0972 63.1504C51.8969 61.9502 51.2227 60.3222 51.2227 58.625C51.2227 56.9275 51.8974 55.2998 53.0976 54.0996C54.2982 52.8995 55.9258 52.2252 57.6234 52.2252C59.3208 52.2256 60.9485 52.8998 62.1488 54.1005C63.3485 55.3006 64.0227 56.9287 64.0223 58.6262C64.0206 60.3224 63.3459 61.9489 62.1466 63.1481C60.9473 64.3479 59.321 65.0225 57.6248 65.0246L57.6226 65.0248Z" fill="black"/>
  <path d="M46.5644 74.0569H46.5405C45.0065 74.0569 42.3239 73.8393 41.5933 72.4188C41.3306 71.9076 41.5322 71.2806 42.0434 71.0179C42.5546 70.7552 43.182 70.9568 43.4447 71.468C44.4259 71.8686 45.4857 72.0421 46.5436 71.9757H46.5644C47.6544 72.0659 48.7493 71.8695 49.7404 71.4064C49.8653 71.1649 50.0829 70.9841 50.3435 70.9061C50.6041 70.8276 50.8855 70.8579 51.1231 70.9902C51.6308 71.2724 51.8203 71.9081 51.5498 72.4223C50.814 73.8488 48.1231 74.0569 46.5644 74.0569Z" fill="black"/>
  <path d="M46.5988 66.6898C46.5758 66.6898 44.3511 66.6733 44.3511 65.2225C44.3511 64.7893 44.6199 64.4013 45.0253 64.2486C45.4307 64.096 45.8886 64.2109 46.1744 64.5365C46.4471 64.6102 46.7341 64.6102 47.0068 64.5365C47.2917 64.2096 47.7496 64.0938 48.1559 64.2456C48.5622 64.3974 48.8319 64.7854 48.8319 65.2194C48.8362 66.669 46.6206 66.6897 46.5989 66.6897L46.5988 66.6898Z" fill="black"/>
  <path d="M54.0383 73.5261C53.4638 73.5261 52.9977 73.06 52.9977 72.4855C52.95 71.6183 52.5333 70.8132 51.8531 70.2733C51.3853 69.939 51.2769 69.2895 51.6107 68.8216C51.9446 68.3538 52.5945 68.245 53.0624 68.5788C54.2881 69.5115 55.0287 70.9462 55.079 72.4854C55.079 72.7616 54.9693 73.0261 54.7742 73.2212C54.5791 73.4163 54.3145 73.5261 54.0383 73.5261Z" fill="black"/>
  <path d="M91.5396 43.1115C93.1005 40.6848 93.4916 36.511 92.3951 32.9439C91.3133 29.2311 88.4425 26.3083 84.7496 25.1601C84.9235 21.5965 83.6903 18.1069 81.3155 15.4438C78.5952 12.4205 74.7133 10.703 70.6463 10.7239C69.8376 7.20144 67.1498 4.43203 63.1109 3.06586C58.7685 1.59424 54.0577 2.12194 51.1941 4.27596C46.0079 -0.787451 38.2417 -0.650035 32.9893 1.09819C27.4541 2.94398 23.531 6.62469 22.6599 10.7321C18.5655 10.7043 14.6476 12.3953 11.8584 15.3927C9.45372 18.0592 8.20276 21.5695 8.37881 25.1558C5.65757 26.0555 3.44804 28.0704 2.30253 30.697C0.612803 34.8959 0.565628 39.5769 2.17029 43.8082C0.298966 46.0498 -0.41653 49.0372 0.236917 51.8833C0.536524 53.8123 1.55846 55.5554 3.09557 56.7586C2.06406 59.3727 1.98689 62.2664 2.87704 64.9317C3.54303 66.8282 4.92796 68.3865 6.73334 69.2698C8.03935 78.4471 17.3914 81.7338 24.4021 83.785C20.7548 86.5063 18.2803 91.2388 17.355 95.239C16.8885 96.9651 17.1235 98.8061 18.0084 100.36C9.68354 105.841 6.14491 110.544 4.99497 112.353C3.93051 113.756 3.52035 115.549 3.86811 117.275C4.46732 119.594 6.78703 121.12 8.97748 122.309C13.629 124.823 27.7085 128.864 45.6525 128.989C45.6637 128.989 45.6733 128.995 45.6845 128.995C45.6958 128.995 45.701 128.989 45.7106 128.989C46.0145 128.999 46.3185 129 46.6315 129C53.1076 129.01 59.5739 128.494 65.9674 127.458C74.6669 126.037 81.4362 123.849 84.2877 122.307C86.4731 121.12 88.7966 119.594 89.3962 117.275C89.7439 115.55 89.3342 113.758 88.2715 112.355C87.1446 110.579 83.6928 105.976 75.5755 100.568C75.6379 100.465 75.6847 100.352 75.7138 100.235C76.7648 95.9308 73.0177 87.8882 68.4429 83.8667C74.8145 82.0175 82.8272 79.337 85.5755 72.3517C88.2611 71.3358 90.3462 69.164 91.2521 66.4388C92.2775 63.5099 92.1661 60.3027 90.9399 57.4523C93.1959 54.1432 94.4589 47.8805 91.5391 43.1113L91.5396 43.1115ZM26.3092 42.3549C26.3404 42.3549 26.3673 42.3623 26.3998 42.3623C28.5022 42.2448 30.544 41.6161 32.3491 40.5308C34.0991 39.6112 35.5212 38.1726 36.4209 36.4122C39.0194 38.6738 42.3602 39.8991 45.8051 39.8545H46.1298C49.4741 39.8112 52.7083 38.65 55.3163 36.5558C55.9459 38.2389 57.0385 39.7097 58.4684 40.7984C60.5119 42.4595 63.0596 43.3769 65.6933 43.4C66.2817 43.4005 66.8692 43.3515 67.4497 43.2543C67.2286 45.1452 67.5239 47.0604 68.3048 48.7969C69.0857 50.5331 70.3223 52.025 71.8836 53.1142C71.1218 54.7965 70.8469 56.6593 71.091 58.4903C71.3347 60.3209 72.0869 62.047 73.2623 63.4714C73.062 66.1917 72.625 68.8894 71.9563 71.534C70.7345 75.7471 68.4867 79.5918 65.4143 82.7226C64.3264 83.8487 63.1479 84.8832 61.8906 85.8154C58.8251 88.276 55.307 90.1122 51.5356 91.2204C49.9097 91.6388 48.2382 91.8517 46.5593 91.8539C40.2263 91.8539 35.4528 88.9515 31.2382 85.8184C29.977 84.8879 28.7972 83.852 27.7106 82.7225C24.6377 79.592 22.3909 75.7474 21.1712 71.5339C20.5035 68.8908 20.0669 66.1946 19.8666 63.4756C21.1231 61.9407 21.8927 60.0654 22.0765 58.0904C22.2604 56.1154 21.8502 54.1304 20.8985 52.3901C24.2892 50.4181 26.9323 46.7999 26.3088 42.3551L26.3092 42.3549ZM19.3831 95.7074C20.3123 91.6863 22.9346 86.8622 26.7714 84.7177C27.7812 85.7132 28.8591 86.6376 29.9972 87.4836C34.2823 90.6722 39.6011 93.9353 46.5593 93.9353C46.8454 93.9353 47.1325 93.9189 47.4186 93.9072C42.2174 97.4743 37.4154 101.591 33.0954 106.186C31.4018 105.307 29.6428 104.561 27.8339 103.953C24.8724 102.877 21.8087 101.768 20.2625 99.9682C19.2601 98.7919 18.928 97.1846 19.3824 95.7069L19.3831 95.7074ZM5.88345 116.755C5.70092 115.587 6.01526 114.397 6.75063 113.472C7.8372 111.764 11.2252 107.29 19.3356 101.979C21.2911 103.779 24.2473 104.862 27.1246 105.908L27.1242 105.909C28.8282 106.478 30.4858 107.177 32.0827 108C31.297 111.243 33.1901 114.805 35.2045 117.002C37.1816 119.157 39.442 120.365 41.3814 120.364H41.3818C41.5418 120.361 41.7014 120.35 41.8605 120.33C42.9353 122.419 43.7825 124.617 44.3879 126.886C26.8013 126.566 13.6536 122.475 9.96953 120.484C8.27769 119.562 6.28493 118.311 5.88301 116.755L5.88345 116.755ZM56.7929 112.204H56.7933C59.9971 116.257 62.5873 120.76 64.4813 125.566C58.5745 126.469 52.6078 126.921 46.6327 126.919H46.5369C45.8991 124.369 44.9807 121.896 43.7992 119.547L44.434 119.19C48.6151 116.835 52.8483 114.45 56.7937 112.204L56.7929 112.204ZM86.516 113.472H86.5165C87.251 114.397 87.5649 115.588 87.3823 116.755C86.9808 118.316 84.989 119.565 83.2979 120.48C80.7879 121.832 74.5359 123.87 66.566 125.246V125.245C64.6396 120.18 61.9639 115.432 58.6283 111.161C66.9125 106.444 71.7461 103.564 73.975 102.003C82.0804 107.318 85.44 111.774 86.5167 113.472L86.516 113.472ZM73.7379 99.5593C73.6672 99.6261 73.5402 99.7384 73.3216 99.9079C70.8927 101.75 62.5678 106.531 56.5154 109.968C52.3677 112.335 47.8553 114.875 43.4142 117.375L41.9114 118.222C40.569 118.56 38.5056 117.522 36.7387 115.594C34.8508 113.534 33.3671 110.426 34.233 108.05C37.3839 104.344 44.1187 98.3639 52.2358 93.1794H52.2354C56.2002 91.9957 59.9008 90.0605 63.1349 87.4798C64.2397 86.6491 65.2877 85.7455 66.271 84.7742C70.4951 87.8804 74.4931 95.6746 73.7387 99.5592L73.7379 99.5593ZM89.2976 65.747C88.7604 67.3378 87.7177 68.7093 86.3289 69.6523C86.3853 69.3141 86.4529 68.9855 86.4859 68.6282V68.6286C86.5396 68.0572 86.1208 67.5503 85.5493 67.4952C85.274 67.4649 84.9982 67.5477 84.7845 67.7242C84.5707 67.9002 84.4376 68.1556 84.415 68.4318C84.3322 69.3774 84.1302 70.3088 83.8137 71.2042C81.7472 77.0949 75.0382 79.7103 69.234 81.4654C71.3864 78.6653 72.9915 75.4845 73.9653 72.0895C74.552 69.7794 74.9695 67.4298 75.2141 65.0593C75.544 65.2401 75.8978 65.3728 76.2651 65.4534C76.3297 65.4651 76.3951 65.4708 76.4611 65.4712C76.997 65.4703 77.4444 65.0619 77.4947 64.5282C77.5455 63.9944 77.1821 63.5101 76.6553 63.4086C76.0474 63.2209 75.5037 62.8666 75.0861 62.3858C74.0806 61.2693 73.4202 59.8853 73.1848 58.4015C72.9498 56.9174 73.1497 55.3972 73.7606 54.0244C75.0255 54.4723 76.3591 54.6952 77.7011 54.6822C78.0831 54.6822 78.4733 54.6657 78.8727 54.6353H78.8731C79.4459 54.5902 79.8738 54.089 79.8287 53.5162C79.7836 52.943 79.2828 52.5151 78.7096 52.5602C76.9978 52.7466 75.2673 52.4657 73.7022 51.7476C69.8051 49.8433 69.0498 45.1159 69.6668 42.6162C70.6541 42.2126 71.5838 41.6797 72.4305 41.0315C72.887 40.6816 72.9733 40.0282 72.6238 39.5721C72.2739 39.1155 71.6205 39.0293 71.1644 39.3787C70.3493 40.0118 69.4392 40.5117 68.4679 40.8608C65.4701 41.8307 62.1844 41.1938 59.7662 39.1742C58.0722 37.8213 57.0511 36.097 57.0836 34.6996C58.0379 33.457 58.6389 31.9797 58.8227 30.4236C58.8856 29.8521 58.4733 29.3383 57.9022 29.2754C57.3308 29.2121 56.817 29.6245 56.7536 30.1955C56.5993 31.4872 56.0733 32.706 55.2395 33.7045C55.2169 33.7323 55.1957 33.7613 55.1771 33.7921C52.8452 36.3416 49.5439 37.7867 46.0886 37.7703C42.5003 37.9246 39.0359 36.4408 36.6719 33.737C36.371 33.4097 36.0927 33.0619 35.8395 32.6964C35.5121 32.2234 34.8639 32.1059 34.3908 32.4328C33.9182 32.7602 33.8003 33.4088 34.1276 33.8814C34.344 34.1936 34.5647 34.4746 34.7863 34.7421C34.5023 36.1596 33.2618 37.5955 31.3002 38.7358C29.6535 39.7912 27.7205 40.3115 25.7664 40.2252C25.5804 39.7032 25.3601 39.1941 25.1069 38.7015C24.8429 38.1908 24.215 37.9909 23.7047 38.2545C23.1939 38.5186 22.9936 39.1464 23.2577 39.6568C23.5464 40.2048 23.7845 40.7784 23.9692 41.3699C25.426 46.0796 22.2374 49.5053 19.0679 51.0059C17.8916 51.5821 16.6055 51.8995 15.2958 51.9372C14.7213 51.9372 14.2552 52.4029 14.2552 52.9779C14.2552 53.5524 14.7213 54.0185 15.2958 54.0185C16.5697 53.9924 17.8283 53.741 19.0142 53.2753C19.8267 54.7044 20.1701 56.353 19.9963 57.9875C19.8224 59.6225 19.14 61.1614 18.0452 62.388C17.6272 62.8693 17.083 63.2244 16.4739 63.413C15.9475 63.5141 15.5841 63.9988 15.6344 64.5326C15.6847 65.0663 16.1326 65.4743 16.6685 65.4756C16.734 65.4752 16.7995 65.4691 16.8641 65.4579C17.2318 65.3772 17.5856 65.2441 17.9151 65.0624C18.1605 67.432 18.5781 69.7803 19.1638 72.0896C20.1368 75.4842 21.7402 78.6654 23.8904 81.4664C17.6467 79.5808 10.5106 76.7638 8.95887 70.0269C9.47961 70.1319 10.0064 70.1991 10.5367 70.229C10.5562 70.2299 10.5753 70.2299 10.5948 70.229C11.1698 70.2446 11.648 69.7911 11.6636 69.2166C11.6792 68.6416 11.2257 68.1634 10.6512 68.1478C9.79615 68.1092 8.9528 67.9336 8.15372 67.6275C8.09518 67.5958 8.03319 67.5702 7.96944 67.5516C6.49216 66.945 5.34799 65.7318 4.82896 64.2216C4.03289 61.7688 4.22541 59.1027 5.36487 56.7895C5.60768 56.2848 5.94588 55.8317 6.36169 55.4562C6.80266 55.0907 6.86509 54.4373 6.50131 53.9946C6.13753 53.5519 5.48411 53.4868 5.04012 53.8485C4.67592 54.1585 4.35375 54.5149 4.08276 54.909C3.12324 53.9915 2.49016 52.7857 2.27948 51.4749C1.83419 49.5173 2.188 47.4626 3.26156 45.7663C3.31273 45.8309 3.35955 45.9098 3.41246 45.9744C3.59066 46.1934 3.84951 46.3308 4.13048 46.3551C4.41188 46.3794 4.69068 46.2883 4.90356 46.1032C5.11645 45.9181 5.24479 45.6544 5.25953 45.3726C5.27428 45.0912 5.17412 44.8154 4.98204 44.6091C4.72406 44.2956 4.50943 43.9491 4.34293 43.5789C2.72302 39.7485 2.67185 35.4352 4.20159 31.5677C5.04578 29.5814 6.66087 28.0235 8.67615 27.2513C8.96059 28.4142 9.46268 29.5125 10.1555 30.4885C10.3134 30.7213 10.5588 30.8804 10.8358 30.9294C11.1129 30.9784 11.3978 30.913 11.6263 30.7482C11.8543 30.5839 12.0057 30.3337 12.0469 30.0553C12.0876 29.777 12.0139 29.4943 11.8426 29.271C11.1229 28.2408 10.6655 27.0501 10.5107 25.8027C10.143 22.5226 11.197 19.2421 13.4066 16.7902C15.9804 13.9936 19.6906 12.5259 23.4806 12.8047H23.5495C24.6504 12.8428 25.7461 12.9712 26.8262 13.1875C27.3903 13.2977 27.9371 12.9296 28.0472 12.3655C28.1569 11.8014 27.7892 11.2546 27.2251 11.1449C26.4108 10.9901 25.5897 10.8774 24.7641 10.8076C25.5966 7.60473 28.9452 4.64496 33.6448 3.07799C38.5356 1.44942 45.8413 1.33276 50.3479 6.3863V6.38587C50.9714 7.07527 51.5159 7.83229 51.9699 8.64313C52.1017 8.89115 52.3285 9.07541 52.5986 9.1539C52.8687 9.23238 53.1588 9.19813 53.4029 9.05938C53.6474 8.92063 53.8252 8.68867 53.8959 8.41636C53.9666 8.14451 53.9245 7.8553 53.7784 7.61509C53.422 6.99375 53.02 6.39932 52.5765 5.83656C54.9031 4.18934 58.8566 3.83038 62.4415 5.04353C65.3019 5.82659 67.5868 7.97844 68.5395 10.7868C67.6541 10.8501 66.7731 10.9668 65.9015 11.1363C65.3374 11.2468 64.9693 11.7936 65.0794 12.3582C65.19 12.9227 65.7368 13.2904 66.3013 13.1802C67.4603 12.9418 68.6388 12.813 69.8216 12.7952C73.5774 12.5446 77.2403 14.0287 79.7625 16.8223C81.9443 19.2725 82.9824 22.5349 82.6173 25.7954C82.4625 27.042 82.0059 28.2313 81.2862 29.2607C81.1149 29.484 81.0412 29.7667 81.082 30.0451C81.1228 30.3234 81.2745 30.5736 81.5026 30.7379C81.7306 30.9027 82.016 30.9682 82.293 30.9192C82.5696 30.8702 82.815 30.7111 82.9729 30.4782C83.6675 29.5 84.17 28.3992 84.454 27.2337C87.3495 28.2444 89.5708 30.6031 90.4063 33.5545C91.2037 36.0863 91.1183 38.8135 90.1635 41.2901C89.8596 40.9654 89.537 40.6593 89.1971 40.3722C88.7565 40.0032 88.1001 40.0609 87.7307 40.5014C87.3617 40.942 87.4193 41.5984 87.8599 41.9678C88.4647 42.4673 88.9998 43.0462 89.4498 43.6888C92.7129 48.2831 90.6621 54.5549 88.8952 56.74C88.6628 57.0704 88.3541 57.3396 87.9951 57.5247C87.464 57.7446 87.2121 58.3538 87.4319 58.8845C87.6522 59.4156 88.2609 59.6675 88.7921 59.4477C89.0054 59.3545 89.2083 59.2392 89.3978 59.1043C90.0707 61.2727 90.036 63.5988 89.2989 65.7464L89.2976 65.747Z" fill="black"/>
  <path d="M30.8697 13.9765C29.3412 14.7184 28.0644 15.893 27.1981 17.3546C26.3313 18.8163 25.9138 20.5003 25.9966 22.1974C26.0344 22.7437 26.4892 23.1673 27.0372 23.166H27.1101C27.3859 23.1469 27.6425 23.0195 27.8238 22.8109C28.005 22.6024 28.0961 22.3305 28.0766 22.0547C28.0276 20.7553 28.3606 19.4706 29.0343 18.3588C29.7086 17.2471 30.6941 16.3574 31.8687 15.8006C34.3796 14.4352 37.3288 14.3793 39.049 15.6662C39.5086 16.0109 40.1612 15.9181 40.5058 15.4581C40.8505 14.9985 40.7573 14.3459 40.2977 14.0013C37.9064 12.2166 34.1208 12.2075 30.8697 13.9765Z" fill="black"/>
  <path d="M15.6198 38.7538C13.343 38.5018 10.8403 39.9734 9.39914 42.4019C8.68502 43.4898 8.30693 44.7636 8.31256 46.0649C8.3182 47.3661 8.7067 48.6369 9.43032 49.7187C9.75854 50.1909 10.4076 50.3071 10.8798 49.9789C11.352 49.6502 11.4687 49.0011 11.14 48.5294C10.6509 47.7728 10.3951 46.8896 10.4038 45.9889C10.4124 45.0884 10.6852 44.2104 11.189 43.4633C12.2045 41.7515 13.9146 40.6537 15.3961 40.8232V40.8236C15.9675 40.8852 16.4809 40.472 16.5429 39.9005C16.6045 39.329 16.1913 38.8153 15.6198 38.7538Z" fill="black"/>
  <path d="M77.4924 28.6384C76.1435 27.6 74.5188 26.9812 72.8209 26.8602C71.1225 26.7388 69.4268 27.1195 67.9435 27.9555C67.4484 28.2486 67.2845 28.8873 67.5776 29.3824C67.8702 29.8775 68.5089 30.0414 69.0041 29.7483C70.1457 29.1222 71.4461 28.8452 72.7434 28.9509C74.0411 29.0572 75.2795 29.5415 76.304 30.345C78.6445 31.9779 80.0108 34.5898 79.6267 36.7001V36.6996C79.5235 37.2637 79.8959 37.8049 80.4592 37.9102C80.5212 37.9215 80.5836 37.9271 80.6465 37.9267C81.1486 37.9262 81.5791 37.5672 81.6693 37.0734C82.2065 34.1432 80.5268 30.7526 77.4925 28.6384L77.4924 28.6384Z" fill="black"/>
</svg>