<svg width="114" height="114" viewBox="0 0 114 114" fill="none" xmlns="http://www.w3.org/2000/svg">
<g id="Emergency call">
<g id="Rectangle 28">
<rect x="0.979736" width="113.02" height="113.02" rx="38" fill="url(#paint0_linear_86_372)"/>
<rect x="0.979736" width="113.02" height="113.02" rx="38" stroke="#FF3772"/>
</g>
<path id="Vector" d="M37.9309 27.0815C32.4971 27.0815 28.061 31.5175 28.061 36.9514V76.43C28.061 81.8638 32.497 86.2998 37.9309 86.2998H77.4095C82.8433 86.2998 87.2793 81.8639 87.2793 76.43V36.9514C87.2793 31.5176 82.8434 27.0815 77.4095 27.0815H37.9309ZM37.9309 31.0295H77.4095C80.7244 31.0295 83.3314 33.6363 83.3314 36.9514V76.43C83.3314 79.7449 80.7245 82.3519 77.4095 82.3519H37.9309C34.6159 82.3519 32.009 79.745 32.009 76.43V36.9514C32.009 33.6364 34.6158 31.0295 37.9309 31.0295ZM52.2002 36.2933C51.7132 36.3443 51.2623 36.5745 50.9358 36.9395C50.6089 37.3041 50.4293 37.7775 50.4321 38.2672V49.4527H39.2466C38.7232 49.4527 38.2209 49.6605 37.8509 50.0308C37.4808 50.4009 37.2727 50.9029 37.2727 51.4263V61.9535C37.2727 62.4772 37.4808 62.9792 37.8509 63.3492C38.2209 63.7196 38.7233 63.9274 39.2466 63.9274H50.4321V75.1128C50.4321 75.6362 50.6399 76.1382 51.0102 76.5086C51.3803 76.8786 51.8823 77.0868 52.4057 77.0868H62.9329C63.4566 77.0868 63.9586 76.8786 64.3286 76.5086C64.699 76.1382 64.9068 75.6362 64.9068 75.1128V63.9274H76.0922C76.6156 63.9274 77.1176 63.7196 77.488 63.3492C77.858 62.9792 78.0662 62.4772 78.0662 61.9535V51.4263C78.0662 50.9028 77.858 50.4009 77.488 50.0308C77.1176 49.6605 76.6156 49.4527 76.0922 49.4527H64.9068V38.2672C64.9068 37.7438 64.699 37.2415 64.3286 36.8715C63.9586 36.5014 63.4566 36.2933 62.9329 36.2933H52.4057C52.3373 36.2896 52.2686 36.2895 52.2002 36.2933ZM54.3796 40.2412H60.9595V51.4266C60.9595 51.9504 61.1674 52.4524 61.5377 52.8224C61.9078 53.1928 62.4098 53.4006 62.9331 53.4006H74.1186V59.9805H62.9331C62.4097 59.9805 61.9078 60.1883 61.5377 60.5587C61.1674 60.9288 60.9595 61.4308 60.9595 61.9541V73.1396H54.3796V61.9541C54.3796 61.4307 54.1718 60.9288 53.8014 60.5587C53.4314 60.1883 52.9294 59.9805 52.4057 59.9805H41.2202V53.4006H52.4057C52.9294 53.4006 53.4314 53.1928 53.8014 52.8224C54.1718 52.4524 54.3796 51.9503 54.3796 51.4266V40.2412Z" fill="white"/>
</g>
<defs>
<linearGradient id="paint0_linear_86_372" x1="57.4899" y1="0" x2="57.4899" y2="113.02" gradientUnits="userSpaceOnUse">
<stop stop-color="#FF3773"/>
<stop offset="1" stop-color="#E00000"/>
</linearGradient>
</defs>
</svg>
